Coordinates
version=1
nRows=37
nColumns=38
inDegrees=no

Units are S.I. units (second, meters, Newtons, ...)
If the header above contains a line with 'inDegrees', this indicates whether rotational values are in degrees (yes) or radians (no).

endheader
time	pelvis_tilt	pelvis_list	pelvis_rotation	pelvis_tx	pelvis_ty	pelvis_tz	hip_flexion_r	hip_adduction_r	hip_rotation_r	knee_angle_r	ankle_angle_r	subtalar_angle_r	mtp_angle_r	hip_flexion_l	hip_adduction_l	hip_rotation_l	knee_angle_l	ankle_angle_l	subtalar_angle_l	mtp_angle_l	lumbar_extension	lumbar_bending	lumbar_rotation	arm_flex_r	arm_add_r	arm_rot_r	elbow_flex_r	pro_sup_r	wrist_flex_r	wrist_dev_r	arm_flex_l	arm_add_l	arm_rot_l	elbow_flex_l	pro_sup_l	wrist_flex_l	wrist_dev_l
3.01251	-0.143778	0.0236863	3.07636	-0.29063	0.990546	0.0151799	-0.11439	-0.05382	-0.178276	0.130918	0.0668146	0	0	-0.134432	-0.102354	-0.200558	0.148347	0.100907	0	0	-0.283808	0.059096	0.090545	0.347262	-0.347458	1.24412	0.603253	0.592456	0	0	0.459854	-0.153941	1.5038	0.572057	0.542175	0	0
3.02248	-0.145274	0.0241272	3.07554	-0.291079	0.990582	0.0150808	-0.116486	-0.0534005	-0.177142	0.130623	0.0671751	0	0	-0.136831	-0.102622	-0.201321	0.148313	0.101293	0	0	-0.285474	0.059037	0.0904594	0.346598	-0.347864	1.24813	0.60059	0.589343	0	0	0.456944	-0.155489	1.5036	0.568848	0.536076	0	0
3.03246	-0.146774	0.0245699	3.07467	-0.291518	0.99062	0.0149789	-0.118559	-0.0529829	-0.175959	0.130347	0.0675317	0	0	-0.139261	-0.102885	-0.202135	0.148224	0.101647	0	0	-0.2872	0.0589596	0.0905067	0.3456	-0.348598	1.25204	0.597647	0.58548	0	0	0.453605	-0.157305	1.50339	0.565377	0.52892	0	0
3.04243	-0.14828	0.0250224	3.07376	-0.291947	0.990659	0.0148762	-0.120612	-0.0525568	-0.174736	0.130084	0.0678791	0	0	-0.141722	-0.103154	-0.202999	0.148078	0.101968	0	0	-0.288988	0.0588729	0.0906892	0.344287	-0.349649	1.25589	0.594426	0.580877	0	0	0.449852	-0.159376	1.50318	0.56168	0.520763	0	0
3.05241	-0.149789	0.0254896	3.07282	-0.292367	0.9907	0.0147747	-0.122652	-0.0521143	-0.173488	0.129823	0.0682108	0	0	-0.144208	-0.103436	-0.203899	0.147876	0.102256	0	0	-0.290836	0.0587864	0.0909961	0.342678	-0.351	1.25973	0.590926	0.575549	0	0	0.445699	-0.16169	1.50298	0.557788	0.511644	0	0
3.06238	-0.151296	0.0259626	3.07189	-0.292778	0.99074	0.0146768	-0.12469	-0.0516623	-0.172256	0.129547	0.0685252	0	0	-0.146707	-0.103724	-0.204798	0.14762	0.102512	0	0	-0.292728	0.058701	0.0913876	0.340784	-0.352633	1.26359	0.58715	0.569515	0	0	0.441155	-0.164234	1.50277	0.553734	0.501573	0	0
3.07236	-0.152787	0.0264247	3.07103	-0.293183	0.990781	0.014585	-0.126735	-0.0512169	-0.171093	0.129239	0.0688232	0	0	-0.149195	-0.104001	-0.205645	0.147313	0.102739	0	0	-0.294635	0.0586136	0.0918073	0.338612	-0.354524	1.26753	0.583098	0.562797	0	0	0.436225	-0.166999	1.50256	0.549547	0.490548	0	0
3.08233	-0.154251	0.0268595	3.07027	-0.293582	0.990821	0.0145017	-0.12879	-0.0507946	-0.170047	0.128887	0.069106	0	0	-0.151647	-0.104252	-0.206393	0.146963	0.10294	0	0	-0.296532	0.0585211	0.0922022	0.336176	-0.356649	1.27158	0.578772	0.555417	0	0	0.430914	-0.169973	1.50236	0.545253	0.478564	0	0
3.09231	-0.155678	0.0272557	3.06965	-0.293976	0.990859	0.0144292	-0.130855	-0.0504074	-0.169147	0.128482	0.0693743	0	0	-0.154043	-0.104465	-0.207009	0.146579	0.103119	0	0	-0.2984	0.0584219	0.0925332	0.333496	-0.358984	1.27578	0.574177	0.547391	0	0	0.425235	-0.173144	1.50215	0.540877	0.465615	0	0
3.10228	-0.157062	0.0276074	3.06917	-0.294367	0.990896	0.0143692	-0.132926	-0.0500623	-0.168408	0.128022	0.0696293	0	0	-0.15637	-0.104633	-0.207477	0.146169	0.103281	0	0	-0.300229	0.0583167	0.0927749	0.330598	-0.361506	1.2802	0.569321	0.538731	0	0	0.419202	-0.176499	1.50195	0.53644	0.451701	0	0
3.11226	-0.1584	0.0279117	3.06885	-0.294754	0.990931	0.0143232	-0.134999	-0.0497625	-0.16783	0.127507	0.0698718	0	0	-0.158618	-0.104752	-0.207794	0.145741	0.103428	0	0	-0.302011	0.0582072	0.0929119	0.327505	-0.364191	1.28486	0.564216	0.529437	0	0	0.412833	-0.180026	1.50174	0.531966	0.436827	0	0
3.12223	-0.159688	0.0281684	3.06867	-0.295138	0.990963	0.0142916	-0.137071	-0.0495084	-0.167408	0.126936	0.070103	0	0	-0.160781	-0.104823	-0.20796	0.145303	0.103564	0	0	-0.303741	0.0580961	0.0929347	0.324245	-0.367018	1.28983	0.558874	0.519501	0	0	0.406146	-0.183713	1.50154	0.527471	0.421017	0	0
3.13221	-0.160923	0.0283791	3.06863	-0.29552	0.990992	0.0142747	-0.139135	-0.0492981	-0.167134	0.126311	0.0703238	0	0	-0.162853	-0.104847	-0.207983	0.144862	0.10369	0	0	-0.305412	0.0579858	0.0928377	0.320842	-0.36996	1.29515	0.553312	0.508904	0	0	0.399163	-0.187544	1.50134	0.522967	0.404308	0	0
3.14218	-0.162102	0.0285468	3.06871	-0.295899	0.991018	0.0142716	-0.14118	-0.0491273	-0.166997	0.125638	0.070535	0	0	-0.164825	-0.104829	-0.20787	0.144426	0.103807	0	0	-0.307019	0.0578778	0.0926184	0.317322	-0.372991	1.30086	0.547545	0.49761	0	0	0.391906	-0.191507	1.50113	0.518469	0.386745	0	0
3.15216	-0.163215	0.0286752	3.06892	-0.296275	0.991041	0.0142813	-0.143192	-0.0489903	-0.166983	0.124923	0.0707364	0	0	-0.166687	-0.104777	-0.207636	0.144002	0.103916	0	0	-0.308548	0.0577718	0.0922763	0.313707	-0.376083	1.30702	0.541593	0.485561	0	0	0.3844	-0.195593	1.50093	0.513991	0.368389	0	0
3.16213	-0.164255	0.0287691	3.06923	-0.296648	0.99106	0.014302	-0.145157	-0.04888	-0.167078	0.12417	0.0709281	0	0	-0.168428	-0.104698	-0.207298	0.143597	0.104019	0	0	-0.309988	0.0576679	0.091814	0.310021	-0.379206	1.31368	0.53547	0.472694	0	0	0.376669	-0.199794	1.50072	0.509543	0.349323	0	0
3.17211	-0.165214	0.0288357	3.06963	-0.297019	0.991076	0.0143317	-0.14706	-0.0487867	-0.167257	0.123386	0.0711097	0	0	-0.170045	-0.104604	-0.206879	0.143216	0.104117	0	0	-0.311326	0.057567	0.0912417	0.306286	-0.382331	1.32087	0.529187	0.458944	0	0	0.368735	-0.204098	1.50052	0.505127	0.329652	0	0
3.18208	-0.166087	0.0288844	3.07008	-0.297385	0.991089	0.0143683	-0.148887	-0.0486984	-0.16749	0.122576	0.0712814	0	0	-0.171538	-0.104505	-0.206412	0.142858	0.104212	0	0	-0.312548	0.0574699	0.0905806	0.302525	-0.385426	1.32865	0.522753	0.44426	0	0	0.360618	-0.208494	1.50032	0.500746	0.309506	0	0
3.19206	-0.166868	0.0289245	3.07056	-0.297747	0.991098	0.0144095	-0.150627	-0.0486032	-0.167745	0.121746	0.071444	0	0	-0.17291	-0.104414	-0.205929	0.142519	0.104306	0	0	-0.313643	0.057377	0.089853	0.298757	-0.388466	1.33706	0.516177	0.428603	0	0	0.352341	-0.212972	1.50011	0.496397	0.289036	0	0
3.20203	-0.167559	0.0289623	3.07105	-0.298105	0.991103	0.0144533	-0.152278	-0.0484929	-0.168001	0.120899	0.0715982	0	0	-0.174169	-0.10434	-0.205446	0.142197	0.104398	0	0	-0.314612	0.0572886	0.0890738	0.295001	-0.391428	1.3461	0.509476	0.411961	0	0	0.343932	-0.217517	1.49991	0.492085	0.268421	0	0
3.21201	-0.168167	0.0290008	3.07154	-0.298456	0.991106	0.0144979	-0.153842	-0.0483645	-0.168247	0.120039	0.0717445	0	0	-0.175323	-0.104284	-0.204971	0.141892	0.104487	0	0	-0.315462	0.057204	0.0882539	0.291266	-0.3943	1.35575	0.50268	0.394366	0	0	0.335424	-0.222117	1.49971	0.487817	0.247868	0	0
3.22199	-0.168698	0.0290401	3.07203	-0.298801	0.991106	0.014542	-0.155319	-0.0482202	-0.168475	0.119172	0.071884	0	0	-0.176376	-0.104245	-0.204509	0.141607	0.104573	0	0	-0.316203	0.0571217	0.0874063	0.287563	-0.397079	1.36595	0.495829	0.375895	0	0	0.326852	-0.226759	1.4995	0.483601	0.227601	0	0
3.23196	-0.169157	0.0290788	3.07251	-0.299138	0.991103	0.0145844	-0.156704	-0.0480667	-0.168681	0.118314	0.0720208	0	0	-0.177331	-0.104222	-0.204065	0.141349	0.104655	0	0	-0.316844	0.057039	0.0865505	0.283892	-0.399768	1.37661	0.48897	0.356685	0	0	0.318248	-0.231425	1.4993	0.479447	0.207847	0	0
3.24194	-0.169544	0.0291148	3.07296	-0.299465	0.991099	0.0146246	-0.157984	-0.047913	-0.168863	0.117485	0.0721615	0	0	-0.178184	-0.104209	-0.203649	0.141126	0.104737	0	0	-0.31739	0.0569525	0.0857088	0.280248	-0.402376	1.38759	0.482156	0.336915	0	0	0.309647	-0.236097	1.4991	0.475365	0.188813	0	0
3.25191	-0.16986	0.029144	3.07338	-0.299783	0.991093	0.0146622	-0.159147	-0.0477692	-0.16902	0.116705	0.0723131	0	0	-0.17893	-0.104201	-0.203267	0.140949	0.104822	0	0	-0.317844	0.0568579	0.0849004	0.276624	-0.404909	1.39878	0.475435	0.316773	0	0	0.301081	-0.240757	1.49889	0.471366	0.170676	0	0
3.26189	-0.170106	0.0291617	3.07376	-0.300089	0.991085	0.0146974	-0.160183	-0.0476451	-0.169155	0.115989	0.0724808	0	0	-0.179565	-0.104192	-0.20292	0.140826	0.10491	0	0	-0.318212	0.05675	0.0841388	0.273021	-0.407372	1.41003	0.468857	0.296432	0	0	0.292585	-0.245389	1.49869	0.467461	0.153577	0	0
3.27186	-0.170287	0.0291627	3.07411	-0.300383	0.991077	0.0147303	-0.16109	-0.0475493	-0.169272	0.11535	0.0726676	0	0	-0.180092	-0.104174	-0.20261	0.140759	0.105	0	0	-0.318502	0.0566242	0.083432	0.269443	-0.409769	1.42123	0.462473	0.276054	0	0	0.284193	-0.249978	1.49849	0.463667	0.137627	0	0
3.28184	-0.17041	0.0291432	3.07442	-0.300664	0.991068	0.0147615	-0.161874	-0.0474877	-0.169375	0.114791	0.0728743	0	0	-0.180518	-0.104142	-0.202332	0.140743	0.10509	0	0	-0.318724	0.0564776	0.0827812	0.265899	-0.4121	1.43226	0.456334	0.255782	0	0	0.275937	-0.254512	1.49828	0.460001	0.122922	0	0
3.29181	-0.170487	0.0291009	3.07469	-0.300931	0.99106	0.0147916	-0.162545	-0.0474632	-0.169469	0.114314	0.0731008	0	0	-0.180856	-0.104091	-0.202077	0.140773	0.105175	0	0	-0.318893	0.0563095	0.0821834	0.262398	-0.414368	1.44301	0.450486	0.235758	0	0	0.267847	-0.258978	1.49808	0.456479	0.109547	0	0
3.30179	-0.170529	0.0290348	3.07495	-0.301182	0.991052	0.0148214	-0.163118	-0.047477	-0.16956	0.113913	0.0733464	0	0	-0.18112	-0.104018	-0.201838	0.140839	0.105255	0	0	-0.319022	0.0561203	0.0816336	0.258952	-0.416574	1.45334	0.444969	0.216121	0	0	0.259952	-0.263366	1.49788	0.453112	0.0975776	0	0
3.31176	-0.170545	0.0289446	3.07518	-0.301419	0.991046	0.0148517	-0.163609	-0.0475287	-0.169649	0.113583	0.0736097	0	0	-0.181326	-0.103922	-0.201607	0.14093	0.105327	0	0	-0.319124	0.0559108	0.081127	0.255573	-0.41872	1.46317	0.439818	0.197008	0	0	0.252282	-0.267661	1.49767	0.44991	0.0870793	0	0
3.32174	-0.170546	0.0288308	3.07541	-0.30164	0.991041	0.0148831	-0.164032	-0.0476174	-0.16974	0.113317	0.0738883	0	0	-0.181488	-0.103802	-0.201378	0.141033	0.105386	0	0	-0.319215	0.0556818	0.0806589	0.252274	-0.420809	1.47238	0.435063	0.178555	0	0	0.244865	-0.271852	1.49747	0.446881	0.0781007	0	0
3.33171	-0.170546	0.0286941	3.07562	-0.301844	0.991038	0.0149164	-0.164404	-0.0477411	-0.169836	0.113105	0.0741786	0	0	-0.181625	-0.103655	-0.20114	0.141137	0.105432	0	0	-0.31931	0.055434	0.0802237	0.249069	-0.422843	1.48085	0.430734	0.160904	0	0	0.237729	-0.275926	1.49726	0.444033	0.0706683	0	0
3.34169	-0.170557	0.0285359	3.07584	-0.302032	0.991039	0.014952	-0.164747	-0.0478974	-0.169941	0.112939	0.0744769	0	0	-0.181755	-0.103482	-0.200883	0.141229	0.105461	0	0	-0.319424	0.0551685	0.0798141	0.245972	-0.424824	1.48851	0.426854	0.144194	0	0	0.230904	-0.279867	1.49706	0.44137	0.0647715	0	0
3.35166	-0.170594	0.0283577	3.07607	-0.302204	0.991042	0.0149904	-0.165085	-0.0480828	-0.170063	0.112805	0.0747791	0	0	-0.181898	-0.103284	-0.200598	0.141302	0.10547	0	0	-0.319574	0.0548866	0.0794217	0.242998	-0.42675	1.49525	0.423442	0.128562	0	0	0.224418	-0.283662	1.49685	0.438899	0.0603442	0	0
3.36164	-0.170673	0.0281623	3.07633	-0.30236	0.991049	0.0150316	-0.165441	-0.0482924	-0.17021	0.112694	0.0750816	0	0	-0.18207	-0.103064	-0.200277	0.14135	0.105457	0	0	-0.319774	0.0545908	0.0790379	0.240162	-0.428621	1.50101	0.42051	0.114135	0	0	0.2183	-0.287298	1.49665	0.43663	0.057243	0	0
3.37161	-0.170803	0.0279534	3.07661	-0.302499	0.991059	0.0150758	-0.165834	-0.0485204	-0.170388	0.112596	0.0753811	0	0	-0.182285	-0.102827	-0.199912	0.141371	0.105421	0	0	-0.320034	0.0542849	0.078654	0.237479	-0.430428	1.50575	0.418059	0.101016	0	0	0.212576	-0.290761	1.49644	0.434574	0.0552712	0	0
